<?xml version="1.0" encoding="UTF-8" standalone="no"?>
<svg
   version="1.1"
   id="Layer_1"
   x="0px"
   y="0px"
   width="100%"
   viewBox="0 0 1024 1024"
   enable-background="new 0 0 1024 1024"
   xml:space="preserve"
   sodipodi:docname="file.svg"
   inkscape:version="1.4 (e7c3feb1, 2024-10-09)"
   xmlns:inkscape="http://www.inkscape.org/namespaces/inkscape"
   xmlns:sodipodi="http://sodipodi.sourceforge.net/DTD/sodipodi-0.dtd"
   xmlns="http://www.w3.org/2000/svg"
   xmlns:svg="http://www.w3.org/2000/svg"><defs
   id="defs1" /><sodipodi:namedview
   id="namedview1"
   pagecolor="#ffffff"
   bordercolor="#666666"
   borderopacity="1.0"
   inkscape:showpageshadow="2"
   inkscape:pageopacity="0.0"
   inkscape:pagecheckerboard="0"
   inkscape:deskcolor="#d1d1d1"
   inkscape:zoom="0.36886238"
   inkscape:cx="474.43168"
   inkscape:cy="252.12655"
   inkscape:window-width="1456"
   inkscape:window-height="757"
   inkscape:window-x="0"
   inkscape:window-y="38"
   inkscape:window-maximized="0"
   inkscape:current-layer="Layer_1" />
<path
   fill="#000000"
   opacity="1"
   stroke="none"
   d="m 57.783741,658.64203 c 0.02192,-151.6291 -0.78003,-302.59676 0.466049,-453.54767 0.505571,-61.24846 32.095464,-105.00137 87.24124,-131.581345 19.16265,-9.236286 39.68946,-12.733074 61.07355,-12.703593 173.56104,-0.32313 329.8561,-0.540685 511.21823,0.139441 7.87046,0 15.43981,0.0029 23.00924,-5.11e-4 27.4922,-0.01221 54.9844,-0.04424 82.4766,-0.03641 62.50151,0.01778 119.30008,41.467078 138.02825,100.767588 4.57367,14.48225 6.99587,29.23698 6.98653,44.53538 -0.12476,204.62114 -0.0751,409.24245 -0.0882,613.86367 -0.004,68.48315 -51.73697,130.15305 -119.25522,142.50148 -9.49225,1.73602 -18.95044,2.61181 -28.5875,2.60912 -205.85637,-0.0567 -411.71278,-0.0227 -617.56915,-0.0612 -61.99249,-0.0115 -119.765571,-43.02606 -137.744507,-102.30988 -4.868698,-16.05412 -7.368365,-32.37662 -7.306515,-49.2077 0.189011,-51.43278 0.0577,-102.8668 0.05145,-154.9684 M 469.56259,787.86774 c 8.92114,0.42122 17.83884,1.09958 26.76407,1.21938 39.78004,0.53385 79.43352,-1.58759 118.87586,-6.76392 29.19069,-3.83088 58.13112,-9.18035 86.53213,-17.00862 21.07332,-5.80853 32.25228,-21.06742 32.32211,-42.6121 0.0785,-24.25639 -1.50152,-48.38923 -4.06585,-72.50788 -4.29499,-40.39434 -22.06654,-72.71151 -56.12939,-95.71362 -27.8764,-18.82455 -59.28267,-28.50261 -91.71383,-35.71875 -5.6056,-1.24727 -10.40612,0.15479 -15.47271,2.02415 -17.30965,6.38649 -35.26704,9.76597 -53.70367,9.81205 -18.67503,0.0467 -36.78166,-3.52538 -54.33327,-9.97508 -3.67346,-1.34986 -7.2095,-3.57618 -11.52034,-2.6791 -25.86529,5.38242 -51.12612,12.59146 -74.80868,24.54477 -47.53412,23.99199 -73.61698,62.06069 -77.78528,115.38029 -1.5775,20.17801 -2.28737,40.3769 -3.51636,60.55564 -1.5583,25.58685 10.84911,41.7018 35.97073,47.94884 20.55339,5.11109 41.26011,9.51316 62.19111,12.8751 26.22527,4.21238 52.57595,7.1646 80.39337,8.61885 M 489.59833,491.3698 c 3.07141,0.4914 6.13033,1.08604 9.21623,1.45804 29.97527,3.61337 57.24561,-1.90446 79.97257,-23.23277 30.9763,-29.06998 46.81316,-64.61567 48.14915,-107.09403 1.13992,-36.24064 -11.01898,-66.79036 -37.10741,-91.66093 -24.15881,-23.03109 -53.42032,-35.04438 -86.69799,-30.77912 -49.40925,6.33284 -82.69166,35.03623 -97.95484,81.73736 -13.20332,40.39858 -5.77204,79.83672 15.65659,116.04022 15.44145,26.08815 35.70335,47.39326 68.7657,53.53123 m 328.30384,-54.80509 c 8.13809,-20.41113 9.16429,-41.55643 5.75084,-62.92862 -7.60644,-47.62508 -62.71625,-79.73332 -104.83311,-61.19155 -25.74098,11.33224 -44.50271,28.63184 -50.34605,57.14595 -2.96515,14.46909 -3.28132,29.13322 -0.6953,43.69084 5.01968,28.25693 17.44424,52.38989 42.02918,68.53066 22.56592,14.81521 46.0978,16.6479 69.78269,1.90447 17.88583,-11.13374 30.02771,-26.93301 38.31175,-47.15175 M 347.72061,344.30588 c -12.51609,-17.90028 -29.4257,-29.85032 -50.52252,-35.24126 -33.08475,-8.45423 -72.248,11.67313 -88.20275,44.6939 -19.05772,39.44275 -5.67609,96.86764 28.93429,123.82124 12.24998,9.54003 25.92976,16.02406 41.71247,16.13183 21.422,0.14631 37.99669,-10.56254 51.81438,-25.6213 16.98734,-18.51298 26.22404,-40.80056 27.98631,-65.71427 1.40852,-19.91292 -0.0533,-39.62701 -11.72218,-58.07014 m 546.03757,317.39341 c 2.69449,-3.63042 4.67813,-7.57179 5.24793,-12.1103 2.2488,-17.91344 2.46444,-35.81156 0.60328,-53.81063 -2.32126,-22.44869 -14.3089,-38.21451 -32.88913,-49.92447 -14.09096,-8.88063 -29.27035,-15.36148 -45.21127,-19.86892 -15.14091,-4.2812 -30.21133,-9.89001 -46.53072,-5.83952 -9.35323,2.32157 -18.95567,2.58539 -28.5875,2.7304 -14.55302,0.21888 -28.93911,-1.56093 -43.39095,-2.65097 -3.77743,-0.28494 -9.11279,-1.64076 -10.70764,2.99561 -1.34213,3.90174 3.59503,5.63743 6.19423,7.78701 32.85932,27.17533 55.39324,60.62471 63.91331,102.84249 3.17022,15.70866 4.01575,31.65399 5.71113,47.51328 0.39755,3.71824 1.79658,5.0217 5.4914,4.75462 31.55674,-2.28112 63.04381,-5.15399 93.984,-12.07009 9.24656,-2.0668 19.18875,-3.06403 26.17193,-12.34851 M 153.72594,549.94133 c -13.95287,10.46244 -23.07901,24.02315 -26.12211,41.27023 -2.99705,16.98626 -2.71433,34.22901 -1.31262,51.22947 1.49236,18.10004 7.68419,26.11507 27.61961,30.56354 32.27577,7.20219 64.96797,10.68059 97.84231,13.13721 3.80621,0.28438 5.75305,-0.83314 6.02084,-5.02847 0.66353,-10.395 1.50529,-20.78811 2.64332,-31.14192 2.54979,-23.19702 8.89633,-45.22016 20.41741,-65.71916 12.45968,-22.16904 30.46631,-39.33065 49.46807,-55.67616 2.08573,-1.79416 4.56102,-3.35313 5.6054,-6.44415 -7.20021,-2.16499 -13.88568,-2.012 -20.88921,-1.2277 -17.96217,2.01118 -35.99287,3.12731 -54.07289,0.78136 -8.80562,-1.14248 -17.53957,-4.43159 -26.48527,-2.74043 -28.44583,5.37761 -56.07737,13.06724 -80.73486,30.99618 z"
   id="path1"
   style="fill:#aa4400;stroke-width:1.33873"
   sodipodi:nodetypes="csscccssscscsssccsssscsssssssssssccsssssssccssssssccssssssccssssscsssssssccssssssssccssc" />
</svg>
